<svg width="20" height="20" fill="none" xmlns="http://www.w3.org/2000/svg"><circle cx="10" cy="10" r="10" fill="#F5A61A"/><g clip-path="url(#clip0)"><path d="M13.89 11.29c-.165-.393-.484-.718-.96-.975.735-.157 1.169-.64 1.302-1.45a1.72 1.72 0 00-.038-.807 1.541 1.541 0 00-.4-.651 3.055 3.055 0 00-.657-.49 6 6 0 00-.87-.39l.438-1.638-1-.268-.428 1.592a37.057 37.057 0 00-.796-.2l.43-1.605L9.91 4.14l-.44 1.638a23.304 23.304 0 01-.632-.162L7.462 5.24l-.286 1.066.722.193c.33.089.482.288.46.598l-.5 1.866a.684.684 0 01.102.034l-.104-.028-.7 2.614c-.094.211-.25.288-.466.23l-.722-.193-.52 1.136 1.3.348.357.099c.155.044.272.076.35.097l-.444 1.658 1.001.268.44-1.638c.18.053.444.126.79.22l-.436 1.631 1 .268.445-1.658c.36.078.684.13.972.156.288.026.571.022.85-.012.279-.035.523-.105.732-.212.21-.106.402-.262.575-.466.173-.205.316-.457.429-.756.218-.587.245-1.077.08-1.47zm-3.703-4.1a27.228 27.228 0 00.61.152c.094.023.218.062.373.118.155.055.283.108.386.159.102.05.212.118.329.203.116.085.204.173.263.265.059.093.1.202.125.327a.883.883 0 01-.02.402.936.936 0 01-.148.316.647.647 0 01-.242.203 1.842 1.842 0 01-.288.111c-.096.028-.212.04-.348.036a6.73 6.73 0 01-.354-.018 2.837 2.837 0 01-.367-.06 7.248 7.248 0 01-.631-.155 25.525 25.525 0 00-.223-.064l.535-1.996zm1.547 5.16a.956.956 0 01-.229.217.933.933 0 01-.309.126 2.28 2.28 0 01-.345.054c-.11.008-.238.006-.385-.006a4.87 4.87 0 01-.773-.12 8.748 8.748 0 01-.659-.17 22.459 22.459 0 00-.24-.067l.59-2.198c.034.01.138.035.31.077a7.143 7.143 0 01.865.246c.187.063.342.126.465.187.123.06.254.139.394.234.139.095.246.195.32.298a.995.995 0 01.16.364.896.896 0 01-.013.442.89.89 0 01-.15.315z" fill="#fff"/></g><defs><clipPath id="clip0"><path fill="#fff" transform="rotate(15 -8.951 25.907)" d="M0 0h11.2v11.2H0z"/></clipPath></defs></svg>