<svg width="848" height="578" fill="none" xmlns="http://www.w3.org/2000/svg"><g filter="url(#filter0_d)"><path d="M4 62C4 28.863 30.863 2 64 2h776.303a3 3 0 012.935 3.618l-118.737 564a3 3 0 01-2.935 2.382H64c-33.137 0-60-26.863-60-60V62z" fill="url(#paint0_linear)"/><mask id="mask0" maskUnits="userSpaceOnUse" x="4" y="2" width="840" height="570"><path d="M4 62C4 28.863 30.863 2 64 2h776.303a3 3 0 012.935 3.618l-118.737 564a3 3 0 01-2.935 2.382H64c-33.137 0-60-26.863-60-60V62z" fill="#4D3E8A"/></mask><g mask="url(#mask0)"><g filter="url(#filter1_f)"><circle cx="604" cy="332" r="210" fill="#A567E3" fill-opacity=".7"/></g><g opacity=".15" stroke="#fff" stroke-width="30"><circle cx="604" cy="332" r="45" stroke-opacity=".45"/><circle cx="604" cy="332" r="105" stroke-opacity=".4"/><circle cx="604" cy="332" r="165" stroke-opacity=".35" stroke-linecap="round"/><circle cx="604" cy="332" r="225" stroke-opacity=".3" stroke-linecap="round"/><circle cx="604" cy="332" r="285" stroke-opacity=".25" stroke-linecap="round"/><circle cx="604" cy="332" r="345" stroke-opacity=".2" stroke-linecap="round"/><circle cx="604" cy="332" r="405" stroke-opacity=".1" stroke-linecap="round"/><circle cx="604" cy="332" r="465" stroke-opacity=".05" stroke-linecap="round"/></g></g></g><defs><filter id="filter0_d" x="0" y="0" width="847.304" height="578" filterUnits="userSpaceOnUse" color-interpolation-filters="sRGB"><feFlood flood-opacity="0" result="BackgroundImageFix"/><feColorMatrix in="SourceAlpha" values="0 0 0 0 0 0 0 0 0 0 0 0 0 0 0 0 0 0 127 0"/><feOffset dy="2"/><feGaussianBlur stdDeviation="2"/><feColorMatrix values="0 0 0 0 0 0 0 0 0 0 0 0 0 0 0 0 0 0 0.3 0"/><feBlend in2="BackgroundImageFix" result="effect1_dropShadow"/><feBlend in="SourceGraphic" in2="effect1_dropShadow" result="shape"/></filter><filter id="filter1_f" x="194" y="-78" width="820" height="820" filterUnits="userSpaceOnUse" color-interpolation-filters="sRGB"><feFlood flood-opacity="0" result="BackgroundImageFix"/><feBlend in="SourceGraphic" in2="BackgroundImageFix" result="shape"/><feGaussianBlur stdDeviation="100" result="effect1_foregroundBlur"/></filter><linearGradient id="paint0_linear" x1="4" y1="332" x2="604" y2="332" gradientUnits="userSpaceOnUse"><stop stop-color="#3E2F7A"/><stop offset="1" stop-color="#4D3E8A"/></linearGradient></defs></svg>