<svg width="20" height="20" fill="none" xmlns="http://www.w3.org/2000/svg"><circle cx="10" cy="10" r="10" fill="#6358A7"/><path d="M10.343 13.696c-.905 0-1.697-.633-2.128-1.574h2.847v-1.304H7.885a4.245 4.245 0 010-.636h3.177V8.877H8.215c.43-.94 1.223-1.573 2.128-1.573.864 0 1.678.601 2.124 1.569L13.6 8.31C12.943 6.885 11.695 6 10.343 6c-1.017 0-1.966.482-2.673 1.36a4.677 4.677 0 00-.805 1.517H5.5v1.304h1.126a5.543 5.543 0 000 .637H5.5v1.304h1.365c.179.561.45 1.075.806 1.517.706.877 1.655 1.36 2.672 1.36 1.352 0 2.6-.884 3.257-2.31l-1.133-.563c-.446.969-1.26 1.57-2.124 1.57z" fill="#fff"/></svg>