<svg width="89" height="22" fill="none" xmlns="http://www.w3.org/2000/svg"><path d="M21.954 22V0h1.186v22h-1.186zm12.46-19.14v-.11h4.746v11c0 3.038-2.656 5.5-5.933 5.5-3.277 0-5.933-2.462-5.933-5.5h4.747c0 .607.53 1.1 1.186 1.1.656 0 1.187-.492 1.187-1.1V2.86zm17.14 5.795c.524.527.93 1.168 1.203 1.905.27.726.406 1.547.406 2.442 0 .215-.009.41-.026.58-.024.237-.048.341-.095.43l-.13.244h-8.21c.04.174.1.34.179.492.148.287.345.539.586.75.24.21.522.377.837.495.313.117.656.177 1.02.177.719 0 1.266-.146 1.625-.433l.193-.153 3.48.899-.372.506c-.328.449-.74.847-1.223 1.183a5.983 5.983 0 01-1.654.791 6.944 6.944 0 01-2.048.287c-.846 0-1.663-.14-2.427-.415a6.014 6.014 0 01-2.036-1.219 5.952 5.952 0 01-1.398-1.946c-.347-.762-.523-1.637-.523-2.602 0-.905.167-1.739.498-2.479a5.94 5.94 0 011.346-1.91 6.178 6.178 0 011.955-1.24 6.18 6.18 0 012.3-.443c.943 0 1.806.144 2.563.428a5.401 5.401 0 011.95 1.231zm-6.742 2.851h4.554a2.29 2.29 0 00-.1-.293 1.723 1.723 0 00-.426-.606 2.2 2.2 0 00-.722-.432c-.29-.11-.644-.165-1.055-.165a2.53 2.53 0 00-.959.171 2.28 2.28 0 00-.717.454 2.343 2.343 0 00-.575.871zM74.22 8.744a5.862 5.862 0 011.36 1.937 6.05 6.05 0 01.486 2.431c0 .873-.164 1.694-.485 2.44a5.824 5.824 0 01-1.36 1.95 6.38 6.38 0 01-2.052 1.284 7.034 7.034 0 01-2.583.464 7.06 7.06 0 01-2.568-.463 6.21 6.21 0 01-2.056-1.287 5.9 5.9 0 01-1.346-1.948 6.12 6.12 0 01-.485-2.44c0-.874.163-1.692.485-2.43a5.943 5.943 0 011.346-1.936 6.211 6.211 0 012.056-1.287 7.061 7.061 0 012.568-.463c.93 0 1.8.156 2.582.464a6.38 6.38 0 012.052 1.284zm-2.11 5.686c.152-.374.23-.817.23-1.318 0-.5-.078-.94-.23-1.305a2.642 2.642 0 00-.61-.907 2.452 2.452 0 00-.863-.535 3.104 3.104 0 00-1.05-.179c-.367 0-.72.06-1.051.18-.32.114-.606.293-.848.53-.25.244-.458.553-.616.917-.159.364-.239.8-.239 1.3 0 .498.08.94.24 1.31.158.372.365.683.615.927.245.24.532.423.855.544.329.125.68.188 1.043.188a2.94 2.94 0 001.044-.187c.324-.123.617-.308.87-.55.255-.24.459-.549.61-.915zm16.607-4.508A5.54 5.54 0 0189 11.704v7.216h-3.702v-6.776c0-.563-.15-1.044-.446-1.427-.264-.342-.739-.509-1.453-.509-.64 0-1.103.184-1.414.563-.342.417-.508.916-.508 1.527v6.622h-3.702V7.326h3.63v.64a3.69 3.69 0 01.832-.5 5.28 5.28 0 012.112-.448c.776 0 1.465.124 2.047.37.587.247 1.08.595 1.466 1.036.376.43.664.934.855 1.498zm-27.876 5.954c.239-.027.307-.041.323-.045l.59-.138v2.975l-.297.11a5.554 5.554 0 01-.578.16c-.312.077-.732.114-1.284.114-1.2 0-2.166-.323-2.871-.961-.71-.64-1.069-1.538-1.069-2.669v-4.95h-1.424V7.326h1.423l.001-3.278h3.679v3.278h2.397v3.146h-2.397v4.532c0 .338.073.583.21.707.143.127.415.195.787.195.169 0 .34-.01.51-.03zM1.221 7.214c-.102.025-.185-.074-.134-.16 1.125-1.913 3.06-3.413 5.51-4.021a9.478 9.478 0 016.94.929c.09.05.072.176-.03.201L1.222 7.214zm15.064-.817c.534.736.95 1.564 1.211 2.468.262.905.349 1.814.283 2.7a.113.113 0 01-.088.098L1.645 15.648a.125.125 0 01-.13-.045 7.968 7.968 0 01-1.211-2.468 7.66 7.66 0 01-.283-2.7.114.114 0 01.088-.098l16.046-3.985a.124.124 0 01.13.045zm.294 8.389c.101-.025.185.074.134.16-1.125 1.913-3.06 3.413-5.51 4.021a9.478 9.478 0 01-6.94-.929c-.09-.05-.072-.176.029-.201l12.287-3.051z" fill="#FF6300"/></svg>