<svg width="320" height="420" fill="none" xmlns="http://www.w3.org/2000/svg"><path d="M0 0h320v360L0 420V0z" fill="#3E2F7A"/><mask id="mask0" maskUnits="userSpaceOnUse" x="0" y="0" width="320" height="420"><path d="M0 0h320v360L0 420V0z" fill="#3E2F7A"/></mask><g mask="url(#mask0)"><g filter="url(#filter0_f)"><circle cx="160" cy="194" r="210" fill="#A567E3" fill-opacity=".7"/></g><g opacity=".15" stroke="#fff" stroke-width="30"><circle cx="160" cy="194" r="45" stroke-opacity=".45"/><circle cx="160" cy="194" r="105" stroke-opacity=".4"/><circle cx="160" cy="194" r="165" stroke-opacity=".35" stroke-linecap="round"/><circle cx="160" cy="194" r="225" stroke-opacity=".3" stroke-linecap="round"/><circle cx="160" cy="194" r="285" stroke-opacity=".25" stroke-linecap="round"/><circle cx="160" cy="194" r="345" stroke-opacity=".2" stroke-linecap="round"/><circle cx="160" cy="194" r="405" stroke-opacity=".1" stroke-linecap="round"/><circle cx="160" cy="194" r="465" stroke-opacity=".05" stroke-linecap="round"/></g><path d="M0 0h320v360L0 420V0z" fill="url(#paint0_linear)"/></g><defs><linearGradient id="paint0_linear" x1="160" y1="0" x2="160" y2="480" gradientUnits="userSpaceOnUse"><stop offset=".625" stop-color="#3E2F7A" stop-opacity="0"/><stop offset=".859" stop-color="#3E2F7A"/></linearGradient><filter id="filter0_f" x="-250" y="-216" width="820" height="820" filterUnits="userSpaceOnUse" color-interpolation-filters="sRGB"><feFlood flood-opacity="0" result="BackgroundImageFix"/><feBlend in="SourceGraphic" in2="BackgroundImageFix" result="shape"/><feGaussianBlur stdDeviation="100" result="effect1_foregroundBlur"/></filter></defs></svg>