<svg width="150" height="46" fill="none" xmlns="http://www.w3.org/2000/svg"><g clip-path="url(#clip0)" filter="url(#filter0_d)"><path d="M17.828 6.18c6.533.338 10.697 1.534 10.697 1.534s-.2-1.67-.2-3.947c0-2.3.4-3.767.4-3.767s-5.759.88-14.263.88C5.913.88 0 0 0 0s.376 1.782.376 3.767c0 1.985-.11 3.924-.11 3.924s4.163-1.173 10.652-1.51c.244 2.48.488 6.066.488 10.96 0 11.008-1.152 15.587-1.152 15.587s1.705-.249 4.03-.249c2.326 0 4.23.248 4.23.248s-1.15-4.6-1.15-15.585c-.023-4.895.198-8.48.464-10.962z" fill="url(#paint0_linear)"/><path d="M58.733 21.901c0-7.623 1.152-10.713 1.152-10.713s-1.794.338-3.898.338-4.363-.338-4.363-.338c1.085 2.864.93 7.195.82 10.984-3.123 5.436-5.139 4.601-5.16-.496-.045-7.624.951-10.488.951-10.488s-1.926.338-4.207.338c-2.282 0-4.031-.338-4.031-.338 2.68 7.105-2.215 21.517 4.806 21.517 3.897 0 6.444-3.496 7.64-5.932 0 3.451.953 5.932 3.987 5.932 3.41 0 5.691-2.413 7.264-5.165l-1.218-1.601c-2.857 2.977-3.743.631-3.743-4.038z" fill="url(#paint1_linear)"/><path d="M35.545 11.142c-.132 0-.287 0-.42.023-.022 0-.045 0-.067.022l-.332.068c-2.082.451-3.72 1.962-4.939 4.534.332-3.203.864-4.58.864-4.58s-1.905.34-4.12.34c-2.214 0-4.118-.34-4.118-.34s1.151 3.068 1.151 10.715c0 7.646-1.151 10.803-1.151 10.803s1.993-.248 4.23-.248c2.236 0 4.008.248 4.008.248s-.82-2.255-1.085-7.51c.088-5.436 1.528-7.782 2.813-8.797.598 1.15 1.771 1.94 3.144 1.94 1.95 0 3.544-1.624 3.544-3.609 0-1.985-1.573-3.609-3.522-3.609z" fill="url(#paint2_linear)"/><path d="M73.594 10.624c-5.692 0-9.944 4.105-9.944 11.39 0 7.263 4.872 11.03 10.409 11.03 3.388 0 6.444-1.399 8.526-4.872l-1.727-1.737c-1.617 2.007-3.123 3.631-5.537 3.631-2.813 0-4.939-3.022-5.05-6.135h13.111c.776-8.48-2.192-13.307-9.788-13.307zm-3.433 10.51c.022-4.308 1.174-6.54 3.588-6.54 3.676 0 3.632 5.525 3.654 6.54H70.16z" fill="url(#paint3_linear)"/><path d="M112.372 9.406c-2.658 0-4.031-.316-4.031-.316s1.152 3.113 1.152 11.841c0 8.73-1.152 12.338-1.152 12.338s2.016-.27 4.12-.27 4.119.27 4.119.27-1.152-3.654-1.152-12.338c0-8.683 1.152-11.841 1.152-11.841s-1.528.316-4.208.316z" fill="url(#paint4_linear)"/><path d="M113.901.135c-2.591.767-6.002.7-8.814.7C98.31.835 91.599 0 91.599 0s1.085 4.466 1.085 16.375c0 11.91-1.151 16.871-1.151 16.871s1.86-.293 4.119-.293c2.281 0 4.12.293 4.12.293s-.864-3.767-1.108-12.518c3.344.248 7.353 1.128 7.353 1.128V14.84s-4.031.88-7.42 1.128c0-3.722.156-7.195.31-9.405a76.306 76.306 0 015.825-.226c4.673 0 7.264.767 7.264.767s0-1.67.443-3.496c.598-2.414 1.462-3.474 1.462-3.474z" fill="url(#paint5_linear)"/><path d="M123.601 11.909c-2.081 0-4.119-.316-4.119-.316s1.152 3.226 1.152 10.85c0 7.623-1.152 10.803-1.152 10.803s2.237-.36 4.119-.36c1.883 0 4.12.36 4.12.36s-1.152-3.203-1.152-10.804c0-7.601 1.152-10.849 1.152-10.849s-2.215.316-4.12.316z" fill="url(#paint6_linear)"/><path d="M141.806 11.751h-3.765c-1.395 0-7.906-.316-7.906-.316s1.351 4.556 1.351 15.09c0 10.533-1.152 16.848-1.152 16.848s2.082-1.579 4.518-1.917c2.348-.316 3.743 0 3.743 0s-.709-2.73-1.019-9c5.293 2.076 12.469.294 12.469-10.533-.044-4.736-.864-10.172-8.239-10.172zm-4.385 17.232c0-.654-.022-1.737-.022-2.458 0-4.85-.044-8.91.222-11.3h1.151c3.433 0 5.094 2.03 5.094 6.698 0 5.256-2.746 7.985-6.445 7.06z" fill="url(#paint7_linear)"/><path d="M124.304 9.63c2.13-.397 3.54-2.477 3.149-4.646-.39-2.168-2.433-3.604-4.562-3.207-2.13.398-3.539 2.478-3.149 4.647.39 2.169 2.433 3.604 4.562 3.207z" fill="url(#paint8_linear)"/></g><defs><linearGradient id="paint0_linear" x1="14.362" y1="0" x2="14.362" y2="32.727" gradientUnits="userSpaceOnUse"><stop stop-color="#F3F3F4"/><stop offset="1" stop-color="#D9DCE0"/></linearGradient><linearGradient id="paint1_linear" x1="51.845" y1="11.188" x2="51.845" y2="32.705" gradientUnits="userSpaceOnUse"><stop stop-color="#F3F3F4"/><stop offset="1" stop-color="#D9DCE0"/></linearGradient><linearGradient id="paint2_linear" x1="30.74" y1="11.142" x2="30.74" y2="32.727" gradientUnits="userSpaceOnUse"><stop stop-color="#F3F3F4"/><stop offset="1" stop-color="#D9DCE0"/></linearGradient><linearGradient id="paint3_linear" x1="73.576" y1="10.624" x2="73.576" y2="33.043" gradientUnits="userSpaceOnUse"><stop stop-color="#F3F3F4"/><stop offset="1" stop-color="#D9DCE0"/></linearGradient><linearGradient id="paint4_linear" x1="112.461" y1="9.09" x2="112.461" y2="33.269" gradientUnits="userSpaceOnUse"><stop stop-color="#F3F3F4"/><stop offset="1" stop-color="#D9DCE0"/></linearGradient><linearGradient id="paint5_linear" x1="102.717" y1="0" x2="102.717" y2="33.246" gradientUnits="userSpaceOnUse"><stop stop-color="#F3F3F4"/><stop offset="1" stop-color="#D9DCE0"/></linearGradient><linearGradient id="paint6_linear" x1="123.601" y1="11.593" x2="123.601" y2="33.246" gradientUnits="userSpaceOnUse"><stop stop-color="#F3F3F4"/><stop offset="1" stop-color="#D9DCE0"/></linearGradient><linearGradient id="paint7_linear" x1="140.09" y1="11.435" x2="140.09" y2="43.373" gradientUnits="userSpaceOnUse"><stop stop-color="#F3F3F4"/><stop offset="1" stop-color="#D9DCE0"/></linearGradient><linearGradient id="paint8_linear" x1="122.891" y1="1.777" x2="124.355" y2="9.621" gradientUnits="userSpaceOnUse"><stop stop-color="#F3F3F4"/><stop offset="1" stop-color="#D9DCE0"/></linearGradient><clipPath id="clip0"><path fill="#fff" d="M0 0h150v43.373H0z"/></clipPath><filter id="filter0_d" x="0" y="0" width="150" height="45.373" filterUnits="userSpaceOnUse" color-interpolation-filters="sRGB"><feFlood flood-opacity="0" result="BackgroundImageFix"/><feColorMatrix in="SourceAlpha" values="0 0 0 0 0 0 0 0 0 0 0 0 0 0 0 0 0 0 127 0"/><feOffset dy="2"/><feColorMatrix values="0 0 0 0 0.2 0 0 0 0 0.145098 0 0 0 0 0.419608 0 0 0 1 0"/><feBlend in2="BackgroundImageFix" result="effect1_dropShadow"/><feBlend in="SourceGraphic" in2="effect1_dropShadow" result="shape"/></filter></defs></svg>