<svg width="54" height="42" fill="none" xmlns="http://www.w3.org/2000/svg"><path d="M3.593 40.938h-.94v-4.345h.921v.527a3.04 3.04 0 011.291-.636c.592.04 1.137.332 1.494.8a1.85 1.85 0 011.475-.8 1.691 1.691 0 011.733 1.363v3.072h-.903v-2.69a.85.85 0 00-.306-.622.875.875 0 00-.672-.196 1.012 1.012 0 00-1.106.818v2.709h-.94V38.21a.954.954 0 00-.941-.855c-1.106 0-1.125.873-1.125.873l.019 2.709zm28.728-4.454a3.042 3.042 0 00-1.29.636v-.527h-.997v4.345h.94v-2.709s0-.872 1.126-.872a.933.933 0 01.498.127l.313-.855a1.716 1.716 0 00-.59-.145zm13.314 0a3.042 3.042 0 00-1.29.636v-.527h-.922v4.345h.94v-2.709s0-.872 1.125-.872a.932.932 0 01.498.127l.313-.855a1.718 1.718 0 00-.627-.127l-.037-.018zm-32.985-.018c-.597.023-1.16.28-1.564.713a2.2 2.2 0 00-.594 1.595c-.042 1.245.933 2.295 2.195 2.364a2.453 2.453 0 001.438-.582v.436h.922v-4.4h-.94v.546a2.208 2.208 0 00-1.475-.672h.018zm.184.89a1.479 1.479 0 011.44.818 1.44 1.44 0 01-.246 1.62 1.49 1.49 0 01-1.619.367 1.455 1.455 0 01-.94-1.35c-.014-.372.121-.733.377-1.006s.612-.434.988-.449zm26.94-.89c-.597.023-1.16.28-1.565.713a2.199 2.199 0 00-.593 1.595c-.042 1.252.944 2.305 2.213 2.364a2.453 2.453 0 001.438-.582v.436h.922v-4.4h-.94v.546a2.208 2.208 0 00-1.475-.672zm.184.89a1.479 1.479 0 011.44.818 1.441 1.441 0 01-.246 1.62 1.49 1.49 0 01-1.62.367 1.455 1.455 0 01-.938-1.35c-.016-.372.12-.733.376-1.006s.611-.434.988-.449zm8.758-.89c-1.214.087-2.137 1.11-2.084 2.309-.044 1.218.888 2.257 2.12 2.363a2.453 2.453 0 001.439-.582v.436h.922v-6.108h-.94v2.255a2.208 2.208 0 00-1.476-.673h.019zm.184.89a1.479 1.479 0 011.44.819c.263.538.165 1.18-.246 1.62a1.49 1.49 0 01-1.62.367 1.455 1.455 0 01-.939-1.351c-.015-.371.12-.733.377-1.006.256-.273.611-.434.988-.448zm-30.993 3.782a3.875 3.875 0 01-1.844-.582l.406-.618c.454.207.94.336 1.438.382.388 0 1.052-.128 1.052-.51 0-.381-1.107-.527-1.107-.527s-1.66 0-1.66-1.363c0-.854.83-1.382 1.845-1.382a6.04 6.04 0 011.844.528l-.461.709a5.841 5.841 0 00-1.347-.364c-.387 0-.866.164-.866.509 0 .927 2.766 0 2.766 1.818 0 1.218-1.125 1.436-2.029 1.436l-.037-.036zm3.533-5.799v1.272h-.811v.891h.83v2.181a1.39 1.39 0 00.432 1.087 1.43 1.43 0 001.117.386 5.465 5.465 0 001.328-.327l-.37-.946a1.264 1.264 0 01-.737.291c-.738 0-.719-.49-.719-.49v-2.182h1.53v-.909h-1.567v-1.272l-1.033.018zm5.613 1.181c-1.218.107-2.152 1.113-2.152 2.318 0 1.206.934 2.211 2.152 2.318a4.298 4.298 0 001.715-.618l-.424-.745a2.754 2.754 0 01-1.29.472 1.247 1.247 0 01-1.291-1.163h3.227s.332-2.582-1.937-2.582zm-.129.855h.11c.294-.015.58.09.793.289.213.199.333.476.333.765h-2.305a1.01 1.01 0 01.302-.757c.202-.2.48-.307.767-.297zm9.715 2.417l.424.855c-.445.29-.96.46-1.494.49a2.38 2.38 0 01-1.727-.628 2.311 2.311 0 01-.743-1.662 2.164 2.164 0 01.67-1.75 2.233 2.233 0 011.8-.595 3.315 3.315 0 011.605.491l-.48.854a1.338 1.338 0 00-1.161-.454 1.444 1.444 0 00-1.294 1.427c0 .73.557 1.345 1.294 1.427a1.983 1.983 0 001.161-.473l-.055.018z" fill="#000"/><path d="M53.756 16.36c0 9.036-7.43 16.361-16.596 16.361s-16.597-7.325-16.597-16.36C20.563 7.324 27.993 0 37.16 0c9.166 0 16.596 7.325 16.596 16.36z" fill="#F79F1A"/><path d="M33.193 16.36c0 9.036-7.43 16.361-16.596 16.361C7.43 32.721 0 25.396 0 16.361 0 7.324 7.43 0 16.596 0c4.402 0 8.623 1.724 11.736 4.792a16.243 16.243 0 014.86 11.568z" fill="#EA001B"/><path d="M26.81 3.399c-4.032 3.122-6.386 7.897-6.386 12.952s2.354 9.83 6.387 12.952c4.032-3.123 6.387-7.897 6.387-12.952s-2.355-9.83-6.387-12.952z" fill="#FF5F01"/></svg>