<svg width="57" height="18" fill="none" xmlns="http://www.w3.org/2000/svg"><path d="M28.22.387l-3.832 17.388h-4.584L23.635.387h4.584zm19.382 11.226l2.426-6.536 1.392 6.536h-3.818zm5.108 6.162H57L53.297.387h-3.945a2.097 2.097 0 00-1.967 1.247l-6.857 16.154h4.84l.957-2.595h5.912l.473 2.582zM40.68 12.1c0-4.59-6.499-4.84-6.448-6.898 0-.624.626-1.248 1.954-1.46a8.876 8.876 0 014.546.774l.804-3.743A12.685 12.685 0 0037.234 0c-4.559 0-7.75 2.358-7.776 5.75 0 2.495 2.285 3.905 4.035 4.74 1.749.836 2.4 1.398 2.387 2.159 0 1.172-1.43 1.684-2.758 1.709a9.812 9.812 0 01-4.724-1.098l-.83 3.817a14.34 14.34 0 005.107.923c4.84 0 8.007-2.333 8.02-5.95l-.014.05zM21.643.387l-7.47 17.4H9.308L5.631 3.905a1.91 1.91 0 00-1.085-1.509A19.596 19.596 0 000 .898L.115.4h7.827c1.057 0 1.956.752 2.12 1.771l1.94 10.067L16.792.399l4.852-.012z" fill="#1047A4"/></svg>